HIERARCHY
ROOT joint_Root
{
	OFFSET 0.0 0.0 0.0
	CHANNELS 6 Xposition Yposition Zposition Zrotation Xrotation Yrotation 
	JOINT Hips
	{
		OFFSET -17.1583 93.1646 452.98
		CHANNELS 6 Xposition Yposition Zposition Zrotation Xrotation Yrotation 
		JOINT Spine
		{
			OFFSET 15.7357 0.0 0.0
			CHANNELS 6 Xposition Yposition Zposition Zrotation Xrotation Yrotation 
			JOINT Chest
			{
				OFFSET 8.98455 -0.406207 0.0
				CHANNELS 6 Xposition Yposition Zposition Zrotation Xrotation Yrotation 
				JOINT Neck
				{
					OFFSET 16.3773 0.0 0.0
					CHANNELS 6 Xposition Yposition Zposition Zrotation Xrotation Yrotation 
					JOINT Head
					{
						OFFSET 6.45672 0.0 0.0
						CHANNELS 6 Xposition Yposition Zposition Zrotation Xrotation Yrotation 
						End Site
						{
							OFFSET 0.0 0.0 0.0
						}
					}
				}
				JOINT Shoulder_L
				{
					OFFSET 12.9942 -0.242716 4.98039
					CHANNELS 6 Xposition Yposition Zposition Zrotation Xrotation Yrotation 
					JOINT UpperArm_L
					{
						OFFSET 5.34809 0.0 0.0
						CHANNELS 6 Xposition Yposition Zposition Zrotation Xrotation Yrotation 
						JOINT LowerArm_L
						{
							OFFSET 24.3286 1.87007e-05 0.0
							CHANNELS 6 Xposition Yposition Zposition Zrotation Xrotation Yrotation 
							JOINT Hand_L
							{
								OFFSET 22.2916 0.0 0.0
								CHANNELS 6 Xposition Yposition Zposition Zrotation Xrotation Yrotation 
								End Site
								{
									OFFSET 0.0 0.0 0.0
								}
							}
						}
					}
				}
				JOINT Shoulder_R
				{
					OFFSET 12.9945 -0.242716 -4.98039
					CHANNELS 6 Xposition Yposition Zposition Zrotation Xrotation Yrotation 
					JOINT UpperArm_R
					{
						OFFSET -5.34813 0.0 0.0
						CHANNELS 6 Xposition Yposition Zposition Zrotation Xrotation Yrotation 
						JOINT LowerArm_R
						{
							OFFSET -24.3289 0.000322201 0.0
							CHANNELS 6 Xposition Yposition Zposition Zrotation Xrotation Yrotation 
							JOINT Hand_R
							{
								OFFSET -22.2915 -0.000108084 0.0
								CHANNELS 6 Xposition Yposition Zposition Zrotation Xrotation Yrotation 
								End Site
								{
									OFFSET 0.0 0.0 0.0
								}
							}
						}
					}
				}
			}
		}
		JOINT UpperLeg_L
		{
			OFFSET -2.19248 -6.46944 0.0
			CHANNELS 6 Xposition Yposition Zposition Zrotation Xrotation Yrotation 
			JOINT LowerLeg_L
			{
				OFFSET 39.0811 0.0 -1.23785e-05
				CHANNELS 6 Xposition Yposition Zposition Zrotation Xrotation Yrotation 
				JOINT Foot_L
				{
					OFFSET 40.9854 0.0 -1.26872e-05
					CHANNELS 6 Xposition Yposition Zposition Zrotation Xrotation Yrotation 
					JOINT Toes_L
					{
						OFFSET 11.7543 0.0 0.0
						CHANNELS 6 Xposition Yposition Zposition Zrotation Xrotation Yrotation 
						End Site
						{
							OFFSET 0.0 0.0 0.0
						}
					}
				}
			}
		}
		JOINT UpperLeg_R
		{
			OFFSET -2.19251 6.46944 0.0
			CHANNELS 6 Xposition Yposition Zposition Zrotation Xrotation Yrotation 
			JOINT LowerLeg_R
			{
				OFFSET -39.0811 -0.00228153 -0.0401928
				CHANNELS 6 Xposition Yposition Zposition Zrotation Xrotation Yrotation 
				JOINT Foot_R
				{
					OFFSET -40.9854 0.0 0.0
					CHANNELS 6 Xposition Yposition Zposition Zrotation Xrotation Yrotation 
					JOINT Toes_R
					{
						OFFSET -11.7543 0.0 0.0
						CHANNELS 6 Xposition Yposition Zposition Zrotation Xrotation Yrotation 
						End Site
						{
							OFFSET 0.0 0.0 0.0
						}
					}
				}
			}
		}
	}
}
MOTION
Frames:	5
Frame Time:	0.0333333
0.000000 0.000000 0.000000 0.000000 0.000000 -0.000000 -2.678230 91.650900 0.107771 83.001500 1.191950 5.940100 15.735700 0.000005 -0.000001 62.277300 86.043700 -58.527600 8.984550 -0.406207 -0.000000 -0.620708 -3.954250 7.476720 16.377300 -0.000001 -0.000001 10.314200 2.011450 5.779390 6.456720 -0.000001 -0.000000 3.100220 4.193010 12.020500 12.994200 -0.242716 4.980390 -91.804600 5.311580 -71.204200 5.348090 -0.000007 -0.000001 -75.615900 -6.770290 0.754874 24.328600 0.000019 0.000005 48.758900 -42.300400 -120.542000 22.291600 -0.000001 0.000005 58.248700 4.756490 12.128800 12.994500 -0.242716 -4.980390 87.711600 6.378420 -70.216100 -5.348130 -0.000001 -0.000004 -67.117900 0.196460 -2.087240 -24.328900 0.000322 -0.000009 22.720300 -22.262700 -132.138000 -22.291500 -0.000108 -0.000004 61.500600 5.657420 -15.769300 -2.192480 -6.469440 -0.000000 -171.125000 4.640030 -2.559310 39.081100 -0.000007 -0.000012 0.456860 -0.791861 29.983800 40.985400 -0.000006 -0.000013 1.712380 9.450740 -78.130200 11.754300 -0.000000 0.000003 0.000296 0.162483 -9.986830 -2.192510 6.469440 -0.000001 -169.642000 7.253450 -175.456000 -39.081100 -0.002282 -0.040193 0.141974 -0.457385 16.863800 -40.985400 0.000008 0.000006 4.895060 0.514490 -71.689500 -11.754300 -0.000006 -0.000006 -0.009756 0.269476 -5.625800
0.000000 0.000000 0.000000 0.000000 0.000000 -0.000000 -2.656100 91.644800 0.141397 83.020900 1.226640 5.946020 15.735700 0.000005 -0.000001 62.400300 86.040400 -58.670800 8.984550 -0.406207 -0.000000 -0.608280 -3.940370 7.436680 16.377300 -0.000001 -0.000001 10.272200 2.028700 5.714290 6.456720 -0.000001 -0.000000 3.009630 4.188080 11.955000 12.994200 -0.242716 4.980390 -91.811900 5.330640 -71.196100 5.348090 -0.000007 -0.000001 -75.630600 -7.069360 0.753608 24.328600 0.000019 0.000005 49.015800 -42.262500 -120.298000 22.291600 -0.000001 0.000005 58.153000 4.758780 12.086600 12.994500 -0.242716 -4.980390 87.703500 6.400350 -70.214000 -5.348130 -0.000001 -0.000004 -67.077100 0.096042 -2.128960 -24.328900 0.000322 -0.000009 22.573500 -22.133300 -132.185000 -22.291500 -0.000108 -0.000004 61.574000 5.657750 -15.805200 -2.192480 -6.469440 -0.000000 -171.158000 4.642900 -2.547550 39.081100 -0.000007 -0.000012 0.453312 -0.785414 29.993200 40.985400 -0.000006 -0.000013 1.732630 9.449950 -78.132500 11.754300 -0.000000 0.000003 0.000335 0.161784 -10.015200 -2.192510 6.469440 -0.000001 -169.674000 7.257690 -175.466000 -39.081100 -0.002282 -0.040193 0.143662 -0.461193 16.924600 -40.985400 0.000008 0.000006 4.872010 0.479494 -71.738100 -11.754300 -0.000006 -0.000006 -0.009928 0.270763 -5.573160
0.000000 0.000000 0.000000 0.000000 0.000000 -0.000000 -2.623840 91.649300 0.168607 82.998700 1.294020 5.913320 15.735700 0.000005 -0.000001 62.319500 86.043900 -58.589600 8.984550 -0.406207 -0.000000 -0.619443 -3.947390 7.437150 16.377300 -0.000001 -0.000001 10.188500 2.020380 5.728760 6.456720 -0.000001 -0.000000 3.020310 4.192250 11.813600 12.994200 -0.242716 4.980390 -91.828500 5.383360 -71.208100 5.348090 -0.000007 -0.000001 -75.568200 -7.392260 0.800467 24.328600 0.000019 0.000005 48.849000 -42.072200 -120.353000 22.291600 -0.000001 0.000005 58.152200 4.765480 11.962400 12.994500 -0.242716 -4.980390 87.706100 6.390330 -70.206000 -5.348130 -0.000001 -0.000004 -67.077900 0.042501 -2.163620 -24.328900 0.000322 -0.000009 22.448300 -22.016500 -132.218000 -22.291500 -0.000108 -0.000004 61.576800 5.657880 -15.820700 -2.192480 -6.469440 -0.000000 -171.165000 4.723210 -2.560450 39.081100 -0.000007 -0.000012 0.455900 -0.790517 29.973800 40.985400 -0.000006 -0.000013 1.755730 9.446750 -78.156700 11.754300 -0.000000 0.000003 0.000261 0.163115 -9.961160 -2.192510 6.469440 -0.000001 -169.652000 7.205650 -175.433000 -39.081100 -0.002282 -0.040193 0.143413 -0.462863 16.838700 -40.985400 0.000008 0.000006 4.838660 0.405423 -71.777400 -11.754300 -0.000006 -0.000006 -0.010055 0.271718 -5.534100
0.000000 0.000000 0.000000 0.000000 0.000000 -0.000000 -2.599670 91.643100 0.206307 83.015300 1.268140 5.863430 15.735700 0.000005 -0.000001 62.479500 86.062000 -58.760100 8.984550 -0.406207 -0.000000 -0.643008 -3.911070 7.415740 16.377300 -0.000001 -0.000001 10.161700 2.030830 5.668770 6.456720 -0.000001 -0.000000 2.981980 4.162450 11.786000 12.994200 -0.242716 4.980390 -91.841300 5.408700 -71.167800 5.348090 -0.000007 -0.000001 -75.468200 -7.594420 0.789331 24.328600 0.000019 0.000005 48.803300 -41.944500 -120.331000 22.291600 -0.000001 0.000005 58.215700 4.752360 12.205200 12.994500 -0.242716 -4.980390 87.713400 6.371670 -70.211300 -5.348130 -0.000001 -0.000004 -67.132600 -0.059110 -2.174570 -24.328900 0.000322 -0.000009 22.549600 -22.072800 -132.145000 -22.291500 -0.000108 -0.000004 61.477300 5.656810 -15.704800 -2.192480 -6.469440 -0.000000 -171.189000 4.687480 -2.581830 39.081100 -0.000007 -0.000012 0.448155 -0.777299 29.967000 40.985400 -0.000006 -0.000013 1.780800 9.440030 -78.097300 11.754300 -0.000000 0.000003 0.000440 0.159864 -10.093200 -2.192510 6.469440 -0.000001 -169.700000 7.248090 -175.479000 -39.081100 -0.002282 -0.040193 0.143449 -0.461699 16.882800 -40.985400 0.000008 0.000006 4.826670 0.467689 -71.758100 -11.754300 -0.000006 -0.000006 -0.009655 0.268712 -5.657040
0.000000 0.000000 0.000000 0.000000 0.000000 -0.000000 -2.580190 91.645000 0.247495 82.995700 1.279530 5.824760 15.735700 0.000005 -0.000001 62.603400 86.075700 -58.890800 8.984550 -0.406207 -0.000000 -0.660587 -3.883470 7.401720 16.377300 -0.000001 -0.000001 10.130000 2.038240 5.659550 6.456720 -0.000001 -0.000000 2.965170 4.142260 11.744200 12.994200 -0.242716 4.980390 -91.850100 5.430780 -71.155200 5.348090 -0.000007 -0.000001 -75.374800 -7.926410 0.745134 24.328600 0.000019 0.000005 49.019500 -41.930100 -120.134000 22.291600 -0.000001 0.000005 58.229400 4.753980 12.175300 12.994500 -0.242716 -4.980390 87.711300 6.377800 -70.211800 -5.348130 -0.000001 -0.000004 -67.147800 -0.175071 -2.156020 -24.328900 0.000322 -0.000009 22.544000 -22.041100 -132.114000 -22.291500 -0.000108 -0.000004 61.416800 5.655870 -15.606000 -2.192480 -6.469440 -0.000000 -171.186000 4.675960 -2.589300 39.081100 -0.000007 -0.000012 0.453019 -0.786011 29.958300 40.985400 -0.000006 -0.000013 1.788120 9.409430 -78.153400 11.754300 -0.000000 0.000003 0.000339 0.161710 -10.018200 -2.192510 6.469440 -0.000001 -169.699000 7.288470 -175.452000 -39.081100 -0.002282 -0.040193 0.142601 -0.460990 16.810800 -40.985400 0.000008 0.000006 4.820200 0.514405 -71.772900 -11.754300 -0.000006 -0.000006 -0.009495 0.267489 -5.707040
